<svg data-v-423bf9ae="" xmlns="http://www.w3.org/2000/svg" viewBox="0 0 366 90" class="iconLeftSlogan"><!----><!----><!----><g data-v-423bf9ae="" id="8d16e68a-1fb8-4c8e-a383-82818dd40ed0" fill="#FFFFFF" transform="matrix(4.709576222757963,0,0,4.709576222757963,109.30307841022369,-13.186813437570784)"><path d="M3.17 12.61L3.17 4.50L0.14 4.50L0.14 2.95L7.92 2.95L7.92 4.50L4.90 4.50L4.90 12.61L3.17 12.61ZM9.06 12.61L9.06 5.78L10.68 5.78L10.68 6.92L10.68 6.92Q10.90 6.32 11.41 5.98L11.41 5.98L11.41 5.98Q11.92 5.63 12.52 5.63L12.52 5.63L12.52 5.63Q12.87 5.63 13.20 5.76L13.20 5.76L13.20 5.76Q13.53 5.88 13.77 6.13L13.77 6.13L13.01 7.49L13.01 7.49Q12.66 7.26 12.26 7.26L12.26 7.26L12.26 7.26Q11.85 7.26 11.49 7.52L11.49 7.52L11.49 7.52Q11.12 7.79 10.90 8.34L10.90 8.34L10.90 8.34Q10.67 8.89 10.67 9.72L10.67 9.72L10.67 12.61L9.06 12.61ZM16.50 12.74L16.50 12.74Q15.79 12.74 15.23 12.48L15.23 12.48L15.23 12.48Q14.66 12.22 14.34 11.71L14.34 11.71L14.34 11.71Q14.01 11.20 14.01 10.51L14.01 10.51L14.01 10.51Q14.01 9.46 14.75 9.00L14.75 9.00L14.75 9.00Q15.48 8.53 16.73 8.53L16.73 8.53L18.51 8.53L18.51 8.53Q18.51 7.87 18.16 7.48L18.16 7.48L18.16 7.48Q17.81 7.09 17.17 7.09L17.17 7.09L17.17 7.09Q16.62 7.09 16.21 7.36L16.21 7.36L16.21 7.36Q15.80 7.63 15.56 8.05L15.56 8.05L14.28 7.13L14.28 7.13Q14.81 6.41 15.50 6.02L15.50 6.02L15.50 6.02Q16.19 5.63 17.15 5.63L17.15 5.63L17.15 5.63Q18.07 5.63 18.73 5.99L18.73 5.99L18.73 5.99Q19.40 6.34 19.75 6.99L19.75 6.99L19.75 6.99Q20.10 7.63 20.10 8.46L20.10 8.46L20.10 12.61L18.73 12.61L18.62 11.63L18.62 11.63Q18.20 12.24 17.68 12.49L17.68 12.49L17.68 12.49Q17.15 12.74 16.50 12.74L16.50 12.74ZM16.73 11.33L16.73 11.33Q17.20 11.33 17.60 11.11L17.60 11.11L17.60 11.11Q18.01 10.89 18.25 10.52L18.25 10.52L18.25 10.52Q18.50 10.16 18.51 9.73L18.51 9.73L16.83 9.73L16.83 9.73Q16.29 9.73 16.01 9.97L16.01 9.97L16.01 9.97Q15.72 10.21 15.72 10.56L15.72 10.56L15.72 10.56Q15.72 10.91 15.99 11.12L15.99 11.12L15.99 11.12Q16.26 11.33 16.73 11.33L16.73 11.33ZM23.62 12.61L20.84 5.78L22.65 5.78L24.31 10.45L25.97 5.78L27.78 5.78L24.99 12.61L23.62 12.61ZM31.55 12.74L31.55 12.74Q30.43 12.74 29.65 12.26L29.65 12.26L29.65 12.26Q28.87 11.77 28.48 10.97L28.48 10.97L28.48 10.97Q28.10 10.17 28.10 9.21L28.10 9.21L28.10 9.21Q28.10 8.29 28.46 7.46L28.46 7.46L28.46 7.46Q28.83 6.64 29.59 6.14L29.59 6.14L29.59 6.14Q30.34 5.63 31.45 5.63L31.45 5.63L31.45 5.63Q32.57 5.63 33.28 6.15L33.28 6.15L33.28 6.15Q33.99 6.67 34.30 7.45L34.30 7.45L34.30 7.45Q34.61 8.23 34.61 9.08L34.61 9.08L34.61 9.08Q34.61 9.28 34.59 9.47L34.59 9.47L34.59 9.47Q34.58 9.66 34.55 9.73L34.55 9.73L29.86 9.73L29.86 9.73Q30.10 11.23 31.57 11.23L31.57 11.23L31.57 11.23Q32.05 11.23 32.46 11.06L32.46 11.06L32.46 11.06Q32.86 10.89 33.21 10.51L33.21 10.51L34.36 11.51L34.36 11.51Q33.80 12.13 33.11 12.44L33.11 12.44L33.11 12.44Q32.42 12.74 31.55 12.74L31.55 12.74ZM29.86 8.53L32.97 8.53L32.97 8.53Q32.89 7.81 32.49 7.42L32.49 7.42L32.49 7.42Q32.09 7.03 31.43 7.03L31.43 7.03L31.43 7.03Q30.13 7.03 29.86 8.53L29.86 8.53ZM37.39 12.74L37.39 12.74Q36.73 12.74 36.35 12.41L36.35 12.41L36.35 12.41Q35.96 12.08 35.96 11.25L35.96 11.25L35.96 2.95L37.63 2.95L37.63 10.79L37.63 10.79Q37.63 11.25 38.18 11.25L38.18 11.25L38.18 11.25Q38.37 11.25 38.64 11.20L38.64 11.20L38.64 12.61L38.64 12.61Q37.94 12.74 37.39 12.74L37.39 12.74ZM39.88 4.48L39.88 2.95L41.62 2.95L41.62 4.48L39.88 4.48ZM39.92 12.61L39.92 5.78L41.58 5.78L41.58 12.61L39.92 12.61ZM43.96 12.61L43.96 7.17L42.70 7.17L42.70 5.78L43.97 5.78L43.97 4.86L43.97 4.86Q43.97 4.22 44.27 3.75L44.27 3.75L44.27 3.75Q44.56 3.29 45.06 3.05L45.06 3.05L45.06 3.05Q45.56 2.80 46.15 2.80L46.15 2.80L46.15 2.80Q46.76 2.80 47.39 3.08L47.39 3.08L46.84 4.46L46.84 4.46Q46.56 4.29 46.31 4.29L46.31 4.29L46.31 4.29Q46.03 4.29 45.86 4.47L45.86 4.47L45.86 4.47Q45.68 4.66 45.68 5.03L45.68 5.03L45.68 5.78L47.27 5.78L47.27 7.17L45.68 7.17L45.68 12.61L43.96 12.61ZM48.64 15.54L49.90 12.42L47.23 5.78L49.06 5.78L50.78 10.52L52.53 5.78L54.37 5.78L50.46 15.54L48.64 15.54Z"></path></g><!----><g data-v-423bf9ae="" id="4d45260a-1be7-4582-bbd5-6502f77ee548" transform="matrix(1.0151136143518626,0,0,1.0151136143518626,-4.04326393645232,-5.085693863018427)" stroke="none" fill="#FFFFFF"><path d="M48.417 5.67a44.109 44.109 0 0 0-18.795 4.184c.004-.022.014-.041.016-.064-.576.268-1.146.548-1.711.841.029.009.063.012.094.019-.104.055-.211.106-.314.162-.01-.017-.024-.027-.032-.044-.327.172-.653.343-.974.523.032.006.061.015.092.021-.342.191-.682.385-1.018.585-.018-.014-.036-.022-.053-.037.191-.112.379-.228.57-.337-.193.112-.389.223-.581.337l.004.003-.241.144c.037-.004.057.01.089.013-.173.104-.341.214-.512.32.012-.035.019-.066.032-.102l-.002.001.001-.003c-.031.02-.063.041-.097.061l.057-.033-.207.129a2.16 2.16 0 0 1 .062-.04c-.194.12-.39.241-.582.365.128-.082.258-.161.387-.24-.129.082-.256.166-.385.25 0 .024.005.053.006.078l-.037.024c-.012-.019-.02-.041-.035-.058l.062-.042c.002-.004 0-.008 0-.011a8.573 8.573 0 0 0-.071.047c.003.001.004.005.005.008a44.195 44.195 0 0 0-3.532 2.538c.009.026.024.05.034.074C10.608 23.51 4.106 35.992 4.106 50c0 24.482 19.839 44.33 44.311 44.33S92.729 74.482 92.729 50c0-24.483-19.84-44.33-44.312-44.33zm31.812 14.786c.045.075.098.142.139.219-1.158.338-1.061-.576-2.047-.408.414.715.709 2.192 1.637 1.227.082.546.561.174.996-.234 6.285 7.116 10.279 16.303 10.814 26.412H90.18c2.58 4.011-2.924 5.74-5.316 7.363.729 1.693 2.34-.518 3.271.408-.402 4.1-3.299 5.697-5.316 8.182.102 3.109.217 3.945 0 6.953-4.158 2.84-4.428 11.6-11.043 10.633-1.096-2.994-1.139-7.043-2.455-9.816 2.725-3.924-1.109-6.549-.818-11.451-.549-.678-2.146-.305-2.045-1.637-2.551.881-4.385.521-6.953.818-1.842-1.021-2.58-3.146-4.09-4.498 1.379-3.963-.869-8.164 3.682-9.817-.219-4.865 7.52-5.636 10.633-4.498v1.635c1.605.306 2.367 1.453 3.682 2.045-.068-1.024.631-1.281 1.229-1.637 1.248.793.939 1.918 2.863 1.229.719.234 2.402-.495 2.453.409.607-.347.592-1.317.818-2.046-.375-1.396-2.518-1.027-3.684-1.635-.559-.522-.559-1.932 0-2.455-2.604-.19-.42 1.975-2.043 2.455h-.818c.352-1.306-.643-1.265-.818-2.045-1.217-.101-1.553 2.771-2.861 1.227 2.91-.479-1.648-4.118-2.045-2.454-.07-.612.146-1.509-.41-1.636-1.453.453-2.395 1.422-3.682 2.045v1.636c-.361.183-.73.36-.816.817h-3.684c-.02-.522-.521-.566-.408-1.229.602-.898-.047-3.047 1.229-3.271 1.176-.57 2.078 1.115 2.453 0h.41c.182-1.543-.809-1.92-1.229-2.862.045-.772 1.354-.284 1.229-1.228 3.486-.193 3.588-3.774 5.727-5.316-.344.475-.541 1.096-.408 2.044 1.506.376.742-2.157.408-2.454-.949-.13-1.57.065-2.045.41-.568-.524-.25-1.931-.818-2.456 2.586-2.321 3.361-6.455 7.771-6.952 1.316.323 2.502.776 3.52 1.399a44.35 44.35 0 0 1 2.476 2.469zm-18.274 4.72c2.131.459 1.541 3.642 3.273 4.499v.818c-.984-.167-.889.748-2.045.41-.773-.092-.902.459-1.635.408 1.655-2.176-.472-3.975.407-6.135zm-.406 4.907h-2.047c-.162-1.525.328-2.4 1.637-2.454.472.484.463 1.447.41 2.454zm-6.545-8.588c-.361-.864-1.246-1.209-1.229-2.454 1.637.401 2.457.401 4.092 0 .078.331.412.408.408.817-.056 1.58-1.597 1.676-3.271 1.637zm-2.455 2.454c-.627 1.69-2.622 2.012-4.089 2.862-.464-.076-.229-.41 0-.408-.062-.756-1.385-.252-1.637-.818-.411-4.999 6.173-6.159 5.726-1.636zm31.086 51.127c-1.025-3.143 1.238-4.395 2.453-6.953 1.209.971-.492 2.475-.408 3.68-.441.758-.992 1.41-1.209 2.396-.016.021-.029.045-.045.068-.436.096-.615.45-.791.809zM55.08 7.075c-.027.035-.039.062-.074.1.258.053.564.056.885.045.686.119 1.365.253 2.039.404-.66.301-.838 1.085-1.693 1.187-.297 1.25.416 1.491.406 2.454-.703.161-1.049-.606-1.227 0 1.404 1.81-2.008 3.385 0 4.908-2.979 1.521-7.176 1.823-8.999 4.499-.884 1.023-1.29 2.527-2.454 3.271-2.918-.84-3.482-5.656-2.604-7.504a.323.323 0 0 0 .146-.263 2.03 2.03 0 0 0-.146.262c-.215.151-.596.103-.668-.266 1.918-5.429-4.68-3.837-5.727-6.953.682-.545 2.604.149 2.454-1.227-.058.008-.109.023-.168.03a43.448 43.448 0 0 1 11.164-1.457c2.268 0 4.492.175 6.666.51zm-27.066 4.583c.828.27 1.514.427 2.448-.388-.534-.032-1.171.038-1.708.009a43.147 43.147 0 0 1 6.021-2.513c-1.586.821-2.635 2.179-3.491 3.729-1.911.186-3.4.375-4.607-.085a40 40 0 0 1 1.337-.752zm-1.963 1.111c.092.197.266.312.733.133-.435.927-1.24 1.486-2.454 1.636.304-.4.436-.716.504-.999.403-.261.805-.523 1.217-.77zm-4.73 3.305c.049.034.096.071.146.101-.097 1.128-1.52.934-2.044 1.637 2.743.813 2.856-2.451 4.499-.41.168-.984-.747-.889-.408-2.043.522-.022.566-.525 1.228-.409.2 2.331 1.526 1.28 2.044 2.862.087-.459.454-.638.818-.817.435-1.525-1.535-.647-1.227-2.045.057-2.262 3.453-1.182 4.908-2.045.007.676 1.134.229 1.227.818-.537-.053-2.959-.062-1.636.409 4.175-.328 4.11 2.779 6.544 4.909-.804-.123-.812.552-1.229.816-.543.062-1.233-1.662-1.635-.407.895.06.879 1.03.817 2.045-2.028-.667-.231.049-1.228.817-1.527-.791-2.703-1.933-4.5-2.455 1.004-.358 2.358-.367 2.455-1.635.304-1.26-1.125-.785-.818-2.045-.6.004-3.348-.154-2.045.41.336 1.834-1.174 1.826-1.637 2.863.6.355 1.297.613 1.228 1.636-.329-.216-.664-.426-1.228-.409-.515.102-.412.814 0 .818-.074.691-1.943-.189-1.637-1.227-1.938.65-2.891 2.289-4.089 3.681.351 1.558 1.907 1.911 3.271 2.454.33.217.666.427 1.229.408-.296 1.251.418 1.49.408 2.454 1.395-3.288 2.595-2.441 2.455-7.771.348.074.386-.16.408-.409.402-.035.972 1.08 2.455.817 1.039.324.221 2.506 1.635 2.455 1.324.506.312-1.323 1.637-.819 1.281 3.818 3.506 5.762 4.09 9.408-1.25.296-1.49-.418-2.453-.408-1.43.365-.699-1.334-.41-1.637a2.075 2.075 0 0 0 1.228-1.228c-1.542.388-2.771 2.538-4.09.818.338 1.155-.576 1.06-.409 2.045-.076.348.159.386.409.409.317.091.808.01.817.408v.41c-1.945 1.258-7.017 2.709-7.771 7.362-1.199.026-1.519.935-2.044 1.636-.867.365.809 2.861-.41 3.682-.989-.512-1.322-1.678-1.637-2.863-3.719-2.158-10.463 4.661-4.09 6.136h.41c-.148-1.297 2.244-1.832 2.452-.409-.606.348-.879 1.028-.817 2.043-.069.889 1.451.188 2.045.41-.115 1.812-.868 3.379 1.227 3.68.318.092.809.012.819.41 1.606-.166 1.747-1.797 3.272-2.045.916.85 2.641 1.199 5.316 1.227.574 2.562 3.68 2.592 5.316 4.092v2.045c2.922.76 5.078 2.285 7.771 3.27-.385 3.844-2.917 5.537-2.861 9.818-1.1.539-2.176 1.098-3.273 1.635-.379 2.689-2.146 5.939-4.5 5.316-.167.986.748.889.408 2.047-4.189 1.184-3.257 3.732-3.928 7.059a43.991 43.991 0 0 1-3.133-1.4c-1.623-3.189 1.092-9.072.112-14.887-.763-4.531-7.209-7.143-6.065-12.537.729-.889 1.577-1.658 2.021-2.832-2.943-4.334-8.721-5.838-12.94-8.896.118-2.275-.71-3.604-2.022-4.448.068 1.146.742 1.685.811 2.83-2.847-2.78-3.883-7.165-4.004-11.327 2.631-8.263 7.667-15.448 14.282-20.743zm8.324 33.643c.141 1.755-1.49 1.105-2.453.818.375-.715 1.277-.904 2.453-.818zm-7.362-1.637c1.108-1.787 3.901.715 4.909 1.638-2.227.043-2.558-1.809-4.909-1.638z"></path></g><!----><g data-v-423bf9ae="" id="ee699290-e549-4e1a-9a6b-43383c1724ba" fill="#FFFFFF" transform="matrix(0.6761317431838277,0,0,0.6761317431838277,109.6581567316634,58.580125067681045)"><path d="M1.75 4.65C1.75 4.03 2.11 3.08 4.21 3.08C5.91 3.08 6.69 3.82 6.80 4.75L7.88 4.75C7.80 3.36 6.68 2.10 4.21 2.10C1.89 2.10 0.73 3.15 0.73 4.66C0.73 7.84 7.07 6.69 7.07 8.96C7.07 10.05 6.09 10.60 4.52 10.60C2.91 10.60 1.61 10.05 1.54 8.71L0.45 8.71C0.59 10.37 1.71 11.59 4.45 11.59C6.73 11.59 8.12 10.64 8.12 8.92C8.12 5.68 1.75 6.80 1.75 4.65ZM17.79 2.21L16.74 2.21L16.74 11.48L17.79 11.48ZM34.86 2.21L31.60 6.61L28.28 2.21L27.06 2.21L27.06 11.48L28.11 11.48L28.11 3.81L31.60 8.22L35.03 3.81L35.03 11.48L36.08 11.48L36.08 2.21ZM46.40 8.18L49.52 8.18C51.49 8.18 52.71 7.03 52.71 5.19C52.71 3.37 51.49 2.21 49.52 2.21L45.35 2.21L45.35 11.48L46.40 11.48ZM49.45 3.21C50.90 3.21 51.66 3.96 51.66 5.19C51.66 6.44 50.90 7.20 49.45 7.20L46.40 7.20L46.40 3.21ZM61.14 2.21L61.14 11.48L67.24 11.48L67.24 10.47L62.19 10.47L62.19 2.21ZM76.65 2.21L75.60 2.21L75.60 11.48L76.65 11.48ZM92.61 3.22L92.61 2.21L85.92 2.21L85.92 11.48L86.97 11.48L86.97 7.46L91.99 7.46L91.99 6.44L86.97 6.44L86.97 3.22ZM104.87 7.81L108.75 2.21L107.48 2.21L104.34 6.72L101.21 2.21L99.93 2.21L103.82 7.81L103.82 11.48L104.87 11.48ZM130.66 7.81L134.54 2.21L133.27 2.21L130.13 6.72L126.99 2.21L125.72 2.21L129.61 7.81L129.61 11.48L130.66 11.48ZM146.29 2.10C143.47 2.10 141.58 4.21 141.58 6.85C141.58 9.48 143.47 11.59 146.29 11.59C149.10 11.59 150.99 9.48 150.99 6.85C150.99 4.21 149.10 2.10 146.29 2.10ZM146.29 10.57C144.03 10.57 142.63 8.93 142.63 6.85C142.63 4.76 144.03 3.12 146.29 3.12C148.54 3.12 149.94 4.76 149.94 6.85C149.94 8.93 148.54 10.57 146.29 10.57ZM166.39 2.21L166.39 7.52C166.39 9.67 164.96 10.57 163.49 10.57C162.02 10.57 160.61 9.67 160.61 7.52L160.61 2.21L159.56 2.21L159.56 7.49C159.56 9.95 161.18 11.59 163.49 11.59C165.82 11.59 167.44 9.94 167.44 7.49L167.44 2.21ZM177.65 7.92L180.87 7.92L183.11 11.48L184.35 11.48L181.92 7.74C182.95 7.50 184.16 6.90 184.16 5.11C184.16 3.35 182.94 2.21 181.03 2.21L176.60 2.21L176.60 11.48L177.65 11.48ZM177.65 3.21L180.91 3.21C182.22 3.21 183.11 3.93 183.11 5.11C183.11 6.55 181.85 6.93 180.85 6.93L177.65 6.93ZM209.52 2.21L202.01 2.21L202.01 3.22L205.24 3.22L205.24 11.48L206.29 11.48L206.29 3.22L209.52 3.22ZM218.90 7.92L222.12 7.92L224.36 11.48L225.61 11.48L223.17 7.74C224.21 7.50 225.41 6.90 225.41 5.11C225.41 3.35 224.20 2.21 222.29 2.21L217.85 2.21L217.85 11.48L218.90 11.48ZM218.90 3.21L222.17 3.21C223.48 3.21 224.36 3.93 224.36 5.11C224.36 6.55 223.10 6.93 222.11 6.93L218.90 6.93ZM238.38 2.21L237.06 2.21L233.13 11.48L234.29 11.48L235.42 8.79L240.02 8.79L241.15 11.48L242.31 11.48ZM235.83 7.83L237.72 3.30L239.61 7.83ZM256.35 2.21L253.15 10.29L249.94 2.21L248.79 2.21L252.55 11.48L253.75 11.48L257.50 2.21ZM272.50 3.22L272.50 2.21L265.68 2.21L265.68 11.48L272.50 11.48L272.50 10.47L266.73 10.47L266.73 7.35L271.88 7.35L271.88 6.33L266.73 6.33L266.73 3.22ZM281.19 2.21L281.19 11.48L287.29 11.48L287.29 10.47L282.24 10.47L282.24 2.21ZM296.27 4.65C296.27 4.03 296.63 3.08 298.73 3.08C300.43 3.08 301.21 3.82 301.32 4.75L302.40 4.75C302.32 3.36 301.20 2.10 298.73 2.10C296.41 2.10 295.25 3.15 295.25 4.66C295.25 7.84 301.59 6.69 301.59 8.96C301.59 10.05 300.61 10.60 299.04 10.60C297.43 10.60 296.13 10.05 296.06 8.71L294.97 8.71C295.11 10.37 296.23 11.59 298.97 11.59C301.25 11.59 302.64 10.64 302.64 8.92C302.64 5.68 296.27 6.80 296.27 4.65Z"></path></g></svg>