<svg data-v-423bf9ae="" xmlns="http://www.w3.org/2000/svg" viewBox="0 0 255.40031640429146 60" class="font"><!----><!----><!----><g data-v-423bf9ae="" id="a367b17a-2a66-4bdf-a21c-98fc24c353e4" fill="black" transform="matrix(4.709576222757963,0,0,4.709576222757963,-0.6593391923153717,-13.186813437570784)"><path d="M3.17 12.61L3.17 4.50L0.14 4.50L0.14 2.95L7.92 2.95L7.92 4.50L4.90 4.50L4.90 12.61L3.17 12.61ZM9.06 12.61L9.06 5.78L10.68 5.78L10.68 6.92L10.68 6.92Q10.90 6.32 11.41 5.98L11.41 5.98L11.41 5.98Q11.92 5.63 12.52 5.63L12.52 5.63L12.52 5.63Q12.87 5.63 13.20 5.76L13.20 5.76L13.20 5.76Q13.53 5.88 13.77 6.13L13.77 6.13L13.01 7.49L13.01 7.49Q12.66 7.26 12.26 7.26L12.26 7.26L12.26 7.26Q11.85 7.26 11.49 7.52L11.49 7.52L11.49 7.52Q11.12 7.79 10.90 8.34L10.90 8.34L10.90 8.34Q10.67 8.89 10.67 9.72L10.67 9.72L10.67 12.61L9.06 12.61ZM16.50 12.74L16.50 12.74Q15.79 12.74 15.23 12.48L15.23 12.48L15.23 12.48Q14.66 12.22 14.34 11.71L14.34 11.71L14.34 11.71Q14.01 11.20 14.01 10.51L14.01 10.51L14.01 10.51Q14.01 9.46 14.75 9.00L14.75 9.00L14.75 9.00Q15.48 8.53 16.73 8.53L16.73 8.53L18.51 8.53L18.51 8.53Q18.51 7.87 18.16 7.48L18.16 7.48L18.16 7.48Q17.81 7.09 17.17 7.09L17.17 7.09L17.17 7.09Q16.62 7.09 16.21 7.36L16.21 7.36L16.21 7.36Q15.80 7.63 15.56 8.05L15.56 8.05L14.28 7.13L14.28 7.13Q14.81 6.41 15.50 6.02L15.50 6.02L15.50 6.02Q16.19 5.63 17.15 5.63L17.15 5.63L17.15 5.63Q18.07 5.63 18.73 5.99L18.73 5.99L18.73 5.99Q19.40 6.34 19.75 6.99L19.75 6.99L19.75 6.99Q20.10 7.63 20.10 8.46L20.10 8.46L20.10 12.61L18.73 12.61L18.62 11.63L18.62 11.63Q18.20 12.24 17.68 12.49L17.68 12.49L17.68 12.49Q17.15 12.74 16.50 12.74L16.50 12.74ZM16.73 11.33L16.73 11.33Q17.20 11.33 17.60 11.11L17.60 11.11L17.60 11.11Q18.01 10.89 18.25 10.52L18.25 10.52L18.25 10.52Q18.50 10.16 18.51 9.73L18.51 9.73L16.83 9.73L16.83 9.73Q16.29 9.73 16.01 9.97L16.01 9.97L16.01 9.97Q15.72 10.21 15.72 10.56L15.72 10.56L15.72 10.56Q15.72 10.91 15.99 11.12L15.99 11.12L15.99 11.12Q16.26 11.33 16.73 11.33L16.73 11.33ZM23.62 12.61L20.84 5.78L22.65 5.78L24.31 10.45L25.97 5.78L27.78 5.78L24.99 12.61L23.62 12.61ZM31.55 12.74L31.55 12.74Q30.43 12.74 29.65 12.26L29.65 12.26L29.65 12.26Q28.87 11.77 28.48 10.97L28.48 10.97L28.48 10.97Q28.10 10.17 28.10 9.21L28.10 9.21L28.10 9.21Q28.10 8.29 28.46 7.46L28.46 7.46L28.46 7.46Q28.83 6.64 29.59 6.14L29.59 6.14L29.59 6.14Q30.34 5.63 31.45 5.63L31.45 5.63L31.45 5.63Q32.57 5.63 33.28 6.15L33.28 6.15L33.28 6.15Q33.99 6.67 34.30 7.45L34.30 7.45L34.30 7.45Q34.61 8.23 34.61 9.08L34.61 9.08L34.61 9.08Q34.61 9.28 34.59 9.47L34.59 9.47L34.59 9.47Q34.58 9.66 34.55 9.73L34.55 9.73L29.86 9.73L29.86 9.73Q30.10 11.23 31.57 11.23L31.57 11.23L31.57 11.23Q32.05 11.23 32.46 11.06L32.46 11.06L32.46 11.06Q32.86 10.89 33.21 10.51L33.21 10.51L34.36 11.51L34.36 11.51Q33.80 12.13 33.11 12.44L33.11 12.44L33.11 12.44Q32.42 12.74 31.55 12.74L31.55 12.74ZM29.86 8.53L32.97 8.53L32.97 8.53Q32.89 7.81 32.49 7.42L32.49 7.42L32.49 7.42Q32.09 7.03 31.43 7.03L31.43 7.03L31.43 7.03Q30.13 7.03 29.86 8.53L29.86 8.53ZM37.39 12.74L37.39 12.74Q36.73 12.74 36.35 12.41L36.35 12.41L36.35 12.41Q35.96 12.08 35.96 11.25L35.96 11.25L35.96 2.95L37.63 2.95L37.63 10.79L37.63 10.79Q37.63 11.25 38.18 11.25L38.18 11.25L38.18 11.25Q38.37 11.25 38.64 11.20L38.64 11.20L38.64 12.61L38.64 12.61Q37.94 12.74 37.39 12.74L37.39 12.74ZM39.88 4.48L39.88 2.95L41.62 2.95L41.62 4.48L39.88 4.48ZM39.92 12.61L39.92 5.78L41.58 5.78L41.58 12.61L39.92 12.61ZM43.96 12.61L43.96 7.17L42.70 7.17L42.70 5.78L43.97 5.78L43.97 4.86L43.97 4.86Q43.97 4.22 44.27 3.75L44.27 3.75L44.27 3.75Q44.56 3.29 45.06 3.05L45.06 3.05L45.06 3.05Q45.56 2.80 46.15 2.80L46.15 2.80L46.15 2.80Q46.76 2.80 47.39 3.08L47.39 3.08L46.84 4.46L46.84 4.46Q46.56 4.29 46.31 4.29L46.31 4.29L46.31 4.29Q46.03 4.29 45.86 4.47L45.86 4.47L45.86 4.47Q45.68 4.66 45.68 5.03L45.68 5.03L45.68 5.78L47.27 5.78L47.27 7.17L45.68 7.17L45.68 12.61L43.96 12.61ZM48.64 15.54L49.90 12.42L47.23 5.78L49.06 5.78L50.78 10.52L52.53 5.78L54.37 5.78L50.46 15.54L48.64 15.54Z"></path></g><!----><!----></svg>